<?xml version="1.0" encoding="UTF-8"?>
<svg xmlns="http://www.w3.org/2000/svg" xmlns:xlink="http://www.w3.org/1999/xlink" version="1.1" id="Layer_1" x="0px" y="0px" viewBox="0 0 200 153" style="enable-background:new 0 0 200 153;" xml:space="preserve">
<style type="text/css">
	.st0{fill:none;}
	.st1{fill-rule:evenodd;clip-rule:evenodd;fill:#C6C7CA;}
	.st2{fill-rule:evenodd;clip-rule:evenodd;fill:#D8D8D8;}
	.st3{fill-rule:evenodd;clip-rule:evenodd;fill:#9B9B9B;fill-opacity:0.3002;}
	.st4{fill-rule:evenodd;clip-rule:evenodd;fill:#E1E1E1;}
	.st5{filter:url(#Adobe_OpacityMaskFilter);}
	.st6{fill-rule:evenodd;clip-rule:evenodd;fill:#FFFFFF;}
	.st7{mask:url(#mask-4_1_);}
	.st8{fill-rule:evenodd;clip-rule:evenodd;fill:#54698D;}
	.st9{display:none;}
	.st10{display:inline;fill-rule:evenodd;clip-rule:evenodd;fill:#54698D;}
</style>
<title>Standard Home Page 204 v2</title>
<desc>Created with Sketch.</desc>
<g id="Template-images-export">
	<g id="Standard-Home-Page-204-v1-Copy" transform="translate(-181.000000, -33.000000)">
		<g id="Standard-Home-Page-204-v2" transform="translate(181.000000, 33.000000)">
			<g id="stand" transform="translate(69.600000, 124.022980)">
				<path id="standShadow" class="st0" d="M60.6,26.9v0.8c0.1,0.4-0.5,0.9-4.7,0.9c-4.4,0-17.9,0-25.5,0s-21.1,0-25.5,0      c-4.3,0-4.8-0.6-4.7-0.9l0-0.8l0.8,0.3h58.9L60.6,26.9z"/>
				<path id="standBottom" class="st1" d="M60.6,26.6v0.8c0.1,0.4-0.5,0.9-4.7,0.9c-4.4,0-17.9,0-25.5,0s-21.1,0-25.5,0      c-4.3,0-4.8-0.6-4.7-0.9l0-0.8l0.8,0.3h58.9L60.6,26.6z"/>
				<g>
					<path class="st2" d="M52.9,23.3c1.1,1.6,7.4,2.9,7.4,2.9s1.7,1.2-4.5,1.2c-4.4,0-17.9,0-25.5,0c-7.6,0-21.1,0-25.5,0       c-6.2,0-4.5-1.2-4.5-1.2s6.4-1.3,7.4-2.9c1.1-1.6,2.9-23.3,2.9-23.3H50C50,0.1,51.9,21.7,52.9,23.3z"/>
				</g>
			</g>
			<g id="screen" transform="translate(0.000000, 0.484177)">
				<g id="outer">
					<g>
						<path class="st3" d="M3.9,0.5h192.3c2.1,0,3.9,1.7,3.9,3.9v115.9c0,2.1-1.7,3.9-3.9,3.9H3.9c-2.1,0-3.9-1.7-3.9-3.9V4.3        C0,2.2,1.7,0.5,3.9,0.5z"/>
					</g>
					<g>
						<path class="st4" d="M3.9,0.5h192.3c2.1,0,3.9,1.7,3.9,3.9v115.9c0,2.1-1.7,3.9-3.9,3.9H3.9c-2.1,0-3.9-1.7-3.9-3.9V4.3        C0,2.2,1.7,0.5,3.9,0.5z"/>
					</g>
				</g>
				<defs>
					<filter id="Adobe_OpacityMaskFilter" filterUnits="userSpaceOnUse" x="6.7" y="9.2" width="186.5" height="104.2">
						<feColorMatrix type="matrix" values="1 0 0 0 0  0 1 0 0 0  0 0 1 0 0  0 0 0 1 0"/>
					</filter>
				</defs>
				<mask maskUnits="userSpaceOnUse" x="6.7" y="9.2" width="186.5" height="104.2" id="mask-4_1_">
					<g class="st5">
						<path id="path-3_1_" class="st6" d="M3.9,0.5h192.3c2.1,0,3.9,1.7,3.9,3.9v115.9c0,2.1-1.7,3.9-3.9,3.9H3.9        c-2.1,0-3.9-1.7-3.9-3.9V4.3C0,2.2,1.7,0.5,3.9,0.5z"/>
					</g>
				</mask>
				<g class="st7">
					<g id="Mask" transform="translate(6.746988, 9.199367)">
						<rect x="0" y="0" class="st6" width="186.5" height="104.2"/>
					</g>
				</g>
			</g>
			<g id="Regions" transform="translate(11.734851, 14.173651)">
				<rect id="Rectangle-3420-Copy-3" x="0" y="0.3" class="st8" width="177.1" height="95.0"/>
			</g>
		</g>
	</g>
</g>

</svg>